<svg width="180" height="175" viewBox="0 0 180 175" fill="none" xmlns="http://www.w3.org/2000/svg">
<path d="M0.0927922 13.4729C-0.971174 4.79955 7.29547 -2.06629 15.6262 0.571716L74.0735 19.0797C83.123 21.9454 85.4201 33.6863 78.1179 39.7512L27.1352 82.0947C19.833 88.1596 8.71325 83.7463 7.55748 74.3245L0.0927922 13.4729Z" fill="black"/>
<path d="M13.703 21.0552C13.2083 18.0406 16.1389 15.6066 19.0115 16.6463L51.5044 28.4062C54.4113 29.4582 55.0769 33.2693 52.6988 35.2445L25.8014 57.5841C23.4233 59.5592 19.7991 58.2053 19.2985 55.1547L13.703 21.0552Z" fill="#E28B8B"/>
<path d="M179.622 13.4729C180.686 4.79955 172.419 -2.06629 164.088 0.571716L105.641 19.0797C96.5914 21.9454 94.2943 33.6863 101.596 39.7512L152.579 82.0947C159.881 88.1596 171.001 83.7463 172.157 74.3245L179.622 13.4729Z" fill="black"/>
<path d="M165.03 19.0552C165.524 16.0406 162.594 13.6066 159.721 14.6463L127.228 26.4062C124.321 27.4582 123.656 31.2693 126.034 33.2445L152.931 55.5841C155.309 57.5592 158.933 56.2053 159.434 53.1547L165.03 19.0552Z" fill="#E28B8B"/>
<ellipse cx="88.3663" cy="93.7755" rx="86.5" ry="80.5" fill="white"/>
<mask id="mask0_0_1" style="mask-type:alpha" maskUnits="userSpaceOnUse" x="1" y="13" width="174" height="162">
<ellipse cx="88.3663" cy="93.7755" rx="86.5" ry="80.5" fill="white"/>
</mask>
<g mask="url(#mask0_0_1)">
<ellipse cx="149.366" cy="54.7755" rx="75.5" ry="71.5" fill="black"/>
<ellipse cx="24.3663" cy="51.7755" rx="75.5" ry="71.5" fill="black"/>
</g>
<circle cx="48.3663" cy="84.7755" r="21.5" fill="#43DDF8"/>
<circle cx="126.366" cy="84.7755" r="21.5" fill="#EDA02D"/>
<ellipse cx="47.8663" cy="84.7755" rx="3" ry="14.5" fill="black"/>
<rect x="113.866" y="80.2755" width="24" height="9" rx="3" fill="black"/>
<path d="M97.8663 110.776C97.8663 125.411 92.046 137.276 84.8663 137.276C77.6866 137.276 71.8663 125.411 71.8663 110.776C76.7251 105.593 82.3665 93.3806 84.8663 84.2755C85.5661 87.38 89.8377 99.9864 97.8663 110.776Z" fill="white"/>
<path d="M83.4453 117.78C84.2261 118.58 85.5112 118.585 86.2978 117.79L91.0709 112.969C92.3188 111.709 91.4304 109.569 89.6568 109.562L80.1451 109.528C78.3716 109.522 77.4679 111.656 78.7067 112.925L83.4453 117.78Z" fill="#E28B8B"/>
</svg>

